<?xml version="1.0" standalone="no"?>
<!DOCTYPE svg PUBLIC "-//W3C//DTD SVG 20010904//EN"
        "http://www.w3.org/TR/2001/REC-SVG-20010904/DTD/svg10.dtd">
<svg version="1.0" xmlns="http://www.w3.org/2000/svg"
     width="468.000000pt" height="533.000000pt" viewBox="0 0 468.000000 533.000000"
     preserveAspectRatio="xMidYMid meet">

    <g transform="translate(0.000000,533.000000) scale(0.100000,-0.100000)"
       fill="#000000" stroke="none">
        <path d="M1133 4859 c-68 -26 -136 -94 -157 -156 -25 -73 -21 -178 10 -265 27
-76 40 -101 107 -206 l40 -63 -17 -37 c-131 -275 -152 -632 -55 -927 37 -111
105 -247 166 -334 59 -84 228 -253 314 -314 82 -58 241 -137 337 -168 39 -13
72 -26 72 -30 0 -3 -7 -23 -15 -42 -50 -121 30 -281 160 -317 93 -26 292 6
444 70 71 31 227 118 253 142 7 7 38 32 68 54 67 50 223 207 286 289 137 175
273 428 332 615 57 178 67 248 67 445 -1 206 -16 285 -85 458 l-40 99 55 87
c137 217 154 415 44 531 -48 50 -113 80 -188 87 -47 4 -77 -2 -181 -35 -312
-101 -490 -127 -880 -127 -369 0 -562 27 -848 119 -160 52 -209 56 -289 25z
m862 -893 c102 -48 173 -150 161 -233 -18 -134 -142 -237 -286 -237 -200 1
-346 207 -251 355 37 57 68 86 128 115 68 33 178 33 248 0z m798 5 c57 -25
111 -73 143 -127 65 -111 -3 -263 -145 -327 -162 -73 -373 42 -397 216 -11 82
61 187 160 233 66 31 173 33 239 5z m-1372 -432 c17 -31 54 -81 83 -109 118
-116 215 -156 376 -153 58 1 116 3 128 5 21 3 34 -14 102 -132 44 -74 89 -143
101 -152 28 -24 100 -24 129 0 12 9 57 78 100 152 74 127 80 135 107 132 15
-2 73 -4 128 -5 156 -2 256 39 373 155 55 54 116 162 128 225 9 48 24 23 24
-42 0 -150 -59 -374 -144 -542 -145 -289 -397 -557 -624 -662 -28 -14 -54 -22
-57 -19 -3 3 0 29 6 58 18 83 6 157 -30 193 -27 28 -37 30 -133 39 -175 14
-309 57 -435 140 -256 167 -410 429 -429 729 -4 53 -3 109 1 125 7 28 8 26 21
-25 8 -30 28 -80 45 -112z m884 -182 c-15 -26 -28 -47 -30 -47 -2 0 -15 21
-29 47 l-26 46 27 29 27 28 28 -28 29 -28 -26 -47z"/>
        <path d="M1847 3904 c-3 -4 0 -13 8 -21 16 -15 19 -51 7 -69 -18 -27 -51 -35
-82 -19 l-30 16 0 -31 c0 -43 25 -87 60 -105 119 -62 236 68 163 182 -23 35
-106 66 -126 47z"/>
        <path d="M2650 3905 c0 -3 7 -17 16 -31 21 -31 7 -68 -30 -86 -20 -9 -30 -8
-51 6 -15 10 -29 15 -32 12 -14 -14 11 -82 42 -113 27 -27 41 -33 74 -33 82 0
131 49 131 128 0 47 -29 88 -76 108 -33 14 -74 19 -74 9z"/>
        <path d="M1826 1663 c-61 -21 -144 -96 -176 -159 -34 -66 -36 -196 -4 -265 52
-111 149 -179 270 -187 288 -19 447 306 258 526 -74 87 -231 125 -348 85z
m239 -28 c106 -52 169 -152 169 -270 0 -87 -24 -146 -89 -210 -61 -62 -119
-87 -204 -88 -111 -1 -206 56 -269 163 -24 40 -27 55 -27 135 0 74 4 97 23
132 23 44 75 102 117 129 74 48 193 52 280 9z"/>
        <path d="M1825 1589 c-53 -27 -112 -92 -125 -138 -37 -133 23 -269 139 -318
53 -23 158 -20 206 5 185 95 192 357 12 447 -67 33 -172 35 -232 4z m211 -13
c146 -68 179 -260 64 -375 -69 -69 -166 -88 -250 -50 -160 72 -195 260 -71
379 75 73 165 89 257 46z"/>
        <path d="M1852 1529 c-111 -55 -134 -205 -43 -292 61 -60 131 -73 206 -38 74
34 105 85 105 172 0 137 -141 220 -268 158z m164 -18 c55 -33 86 -84 86 -139
0 -180 -240 -240 -313 -78 -24 53 -24 97 1 146 42 83 151 117 226 71z"/>
        <path d="M2355 1670 c-6 -9 -7 -154 -3 -395 l3 -220 5 300 5 300 170 0 c160 0
172 -1 207 -23 84 -52 109 -160 54 -242 -38 -58 -90 -80 -188 -80 -45 0 -78
-4 -78 -10 0 -5 5 -9 12 -7 10 1 128 -189 141 -227 2 -5 8 -7 13 -5 6 2 -16
51 -48 108 -32 58 -58 108 -58 112 0 4 9 9 20 12 22 6 27 -1 95 -128 52 -97
62 -112 70 -103 3 3 -21 55 -54 114 -58 105 -61 123 -26 124 6 0 41 -54 78
-120 38 -66 73 -120 78 -120 6 0 -3 24 -19 53 -16 28 -46 83 -67 120 l-38 69
29 24 c16 13 32 23 36 24 3 0 16 20 28 46 25 51 29 127 10 165 -16 30 -59 77
-85 92 -20 12 -384 27 -390 17z"/>
        <path d="M2963 1370 l2 -315 2 288 c2 168 7 287 13 287 5 0 16 -10 24 -22 14
-19 16 -64 16 -285 0 -169 4 -263 10 -263 6 0 10 83 10 230 0 143 4 230 10
230 5 0 16 -13 25 -30 12 -23 15 -69 15 -230 0 -127 4 -200 10 -200 6 0 10 66
10 177 0 175 0 176 20 158 11 -10 20 -22 20 -26 0 -14 182 -310 187 -305 3 3
-17 42 -45 88 -28 46 -105 174 -172 285 -66 111 -130 212 -140 225 -19 23 -19
20 -17 -292z"/>
        <path d="M3407 1635 c-4 -27 -7 -129 -6 -225 1 -204 1 -200 -9 -200 -25 0 -32
60 -32 255 0 130 -4 205 -10 205 -6 0 -10 -65 -10 -175 0 -96 -4 -175 -9 -175
-4 0 -50 70 -101 156 -77 129 -145 230 -127 189 23 -55 363 -605 374 -605 11
0 13 56 13 305 0 197 -4 305 -10 305 -6 0 -10 -102 -10 -285 0 -157 -3 -285
-8 -285 -4 0 -14 10 -22 23 -12 18 -16 76 -20 292 -3 180 -8 253 -13 220z"/>
        <path d="M1060 1371 c0 -189 4 -302 10 -306 7 -4 10 98 10 299 0 197 -4 306
-10 306 -6 0 -10 -106 -10 -299z"/>
        <path d="M1130 1363 c0 -203 4 -303 10 -293 13 21 13 600 0 600 -6 0 -10 -109
-10 -307z"/>
        <path d="M1202 1368 l-2 -308 168 2 167 2 -160 6 c-156 5 -160 6 -163 28 l-3
22 160 0 c213 0 216 19 4 22 -150 3 -158 4 -158 23 0 19 8 20 160 25 92 3 133
7 95 9 -77 5 -206 10 -237 11 l-23 0 -3 233 c-2 222 -2 219 -5 -75z"/>
        <path d="M3043 1658 c11 -30 347 -587 359 -594 13 -9 18 -18 -74 136 -41 69
-119 199 -173 290 -95 160 -125 204 -112 168z"/>
        <path d="M2410 1336 c0 -177 4 -276 10 -276 6 0 10 95 10 265 l0 265 131 0
131 0 34 -34 c41 -41 46 -89 13 -130 -32 -40 -56 -49 -136 -47 -44 1 -73 -3
-73 -9 0 -6 32 -10 79 -10 94 0 137 22 160 84 13 33 13 44 0 79 -25 72 -49 82
-215 85 l-144 3 0 -275z"/>
        <path d="M2481 1298 c0 -149 4 -235 9 -223 5 11 9 117 9 235 l-1 215 88 0 c76
0 88 -2 100 -21 12 -17 12 -23 0 -40 -11 -15 -31 -20 -88 -25 l-73 -6 77 -1
c86 -2 108 10 108 57 0 45 -15 51 -127 51 l-103 0 1 -242z"/>
    </g>
</svg>
